<?xml version="1.0" encoding="utf-8"?>
<!-- Generator: Adobe Illustrator 14.0.0, SVG Export Plug-In . SVG Version: 6.00 Build 43363)  -->
<!DOCTYPE svg PUBLIC "-//W3C//DTD SVG 1.1//EN" "http://www.w3.org/Graphics/SVG/1.1/DTD/svg11.dtd">
<svg version="1.1" id="apple" xmlns="http://www.w3.org/2000/svg" xmlns:xlink="http://www.w3.org/1999/xlink" x="0px" y="0px"
	 width="400px" height="300px" viewBox="-115 -65 400 300" enable-background="new -115 -65 400 300" xml:space="preserve">
<path id="apple_2_" fill="#666666" d="M110.25,30.909c5.9-7.002,8.859-14.566,8.859-22.669c0-1.074-0.049-2.158-0.17-3.241
	c-4.109,0.213-8.479,1.458-13.1,3.71c-4.63,2.286-8.447,5.151-11.449,8.597c-6.014,6.806-9.399,15.13-9.399,22.908
	c0,1.075,0.069,2.098,0.188,3.069C94.518,44.043,103.13,39.233,110.25,30.909z"/>
<path id="apple_1_" fill="#666666" d="M142.01,116.381c-7.369-6.83-11.119-15.434-11.229-25.77
	c-0.12-13.271,5.909-23.616,18.1-31.002c-6.81-9.68-17.05-15.053-30.68-16.153c-5.03-0.427-11.17,0.657-18.445,3.275
	c-7.692,2.823-12.231,4.239-13.569,4.239c-1.792,0-5.876-1.211-12.238-3.599c-6.38-2.38-11.514-3.591-15.429-3.591
	c-7.155,0.119-13.799,1.979-19.948,5.629c-6.149,3.65-11.062,8.622-14.755,14.925c-4.699,7.847-7.045,17.211-7.045,28.068
	c0,9.479,1.74,19.268,5.211,29.377c3.241,9.361,7.378,17.57,12.41,24.65c4.69,6.631,8.605,11.311,11.735,14.041
	c4.904,4.559,9.817,6.729,14.746,6.52c3.241-0.109,7.48-1.221,12.742-3.35c5.254-2.121,10.166-3.17,14.745-3.17
	c4.367,0,9.144,1.049,14.341,3.17c5.18,2.129,9.63,3.18,13.319,3.18c5.141-0.121,9.94-2.23,14.42-6.35
	c2.891-2.511,6.641-7.031,11.221-13.561c3.359-4.79,6.26-10,8.71-15.66c1.01-2.4,1.96-4.9,2.86-7.51
	C149.08,122,145.35,119.551,142.01,116.381z"/>
</svg>
