<?xml version="1.0" encoding="utf-8"?>
<!-- Generator: Adobe Illustrator 16.0.0, SVG Export Plug-In . SVG Version: 6.00 Build 0)  -->
<!DOCTYPE svg PUBLIC "-//W3C//DTD SVG 1.0//EN" "http://www.w3.org/TR/2001/REC-SVG-20010904/DTD/svg10.dtd">
<svg version="1.0" id="Layer_1" xmlns="http://www.w3.org/2000/svg" xmlns:xlink="http://www.w3.org/1999/xlink" x="0px" y="0px"
	 width="600px" height="600px" viewBox="0 0 800 800" enable-background="new 0 0 800 800" xml:space="preserve">
<g>
	<path fill="#373435" d="M161.431,336.011h90.903v26.602h-58.019v22.831h53.412v26.808h-53.412v25.137h58.019v26.6h-90.903
		 M365.65,422.307c0,10.264-5.655,15.918-21.993,15.918c-16.338,0-21.783-5.654-21.783-15.918v-86.295H288.99v90.065
		c0,20.318,12.357,40.426,54.667,40.426c42.52,0,54.877-20.107,54.877-40.426v-90.065H365.65V422.307z M589.977,463.988h32.883
		V336.011h-32.883V463.988z M735.756,400.733v36.025c-5.865,0.84-12.566,1.678-19.688,1.678c-16.967,0-20.316-5.865-20.316-16.758
		v-44.194c0-11.729,5.654-15.708,19.688-15.708c13.615,0,28.484,1.466,44.193,3.769l2.934-27.647
		c-16.336-3.141-31.418-4.398-46.289-4.398c-37.703,0-53.412,12.776-53.412,39.796v53.202c0,25.762,14.244,40.006,52.363,40.006
		c16.967,0,35.189-2.303,50.898-6.703v-59.066H735.756z M29.266,379.788c-11.101,0-20.108,9.007-20.108,20.107
		c0,11.31,9.007,20.317,20.108,20.317c11.101,0,20.107-9.008,20.107-20.317C49.373,388.795,40.366,379.788,29.266,379.788z
		 M29.266,333.499c-11.101,0-20.108,9.007-20.108,20.107s9.007,20.107,20.108,20.107c11.101,0,20.107-9.007,20.107-20.107
		S40.366,333.499,29.266,333.499z M29.266,426.287c-11.101,0-20.108,9.006-20.108,20.107c0,11.1,9.007,20.107,20.108,20.107
		c11.101,0,20.107-9.008,20.107-20.107C49.373,435.293,40.366,426.287,29.266,426.287z M130.013,336.011H92.939l-37.492,63.884
		l37.492,64.093h37.073l-38.749-64.093L130.013,336.011z M529.654,421.26l25.971,42.729h-37.074l-20.525-36.236H472.68v36.236
		h-32.883V336.011h60.533c34.561,0,45.66,13.406,45.66,36.865v18.013C545.99,405.34,542.012,413.721,529.654,421.26z
		 M513.943,374.342c0-8.378-3.979-11.729-13.822-11.729H472.68v39.167h26.602c10.684,0,14.662-3.979,14.662-12.566V374.342z
		 M782.256,334.126c-4.609,0-8.379,3.771-8.379,8.379c0,4.817,3.77,8.587,8.379,8.587c4.816,0,8.586-3.771,8.586-8.587
		C790.842,337.897,787.072,334.126,782.256,334.126z M782.256,350.045c-3.98,0-7.332-3.351-7.332-7.54
		c0-3.98,3.352-7.332,7.332-7.332c4.189,0,7.539,3.351,7.539,7.332C789.795,346.694,786.445,350.045,782.256,350.045z
		 M782.883,343.761h-2.094v2.723h-1.049v-8.168h3.143c1.676,0,2.305,0.838,2.305,2.094v1.257c0,0.838-0.211,1.466-1.047,1.886
		l2.096,2.932h-1.26L782.883,343.761z M782.883,339.362h-2.094v3.352h2.094c0.838,0,1.258-0.418,1.258-1.047v-1.257
		C784.141,339.573,783.721,339.362,782.883,339.362z"/>
</g>
</svg>
