<svg xmlns="http://www.w3.org/2000/svg" height="800" width="1200" xml:space="preserve" y="0" x="0" id="Layer_1" version="1.1" viewBox="-46.228455 -21.4835 400.64661 128.901"><style id="style3305" type="text/css">.st0{fill:#181a1d}</style><g transform="translate(-29.0103 -29.033)" id="g3329"><g id="g3311"><g id="g3309"><path id="path3307" d="M79.8 49.7L86 38.9c1.8-3.1.7-7.2-2.4-9-3.1-1.8-7.2-.7-9 2.4l-6.2 10.8c-13.2-4.2-28.1 1.2-35.3 13.8-4.6 8-5.2 17.1-2.4 25.2l11.5-19.9c2.6-4.6 6.9-7.8 12-9.2 5.1-1.4 10.4-.7 15 2 9.4 5.4 12.7 17.6 7.2 27-5.4 9.4-17.5 12.7-27 7.2L56 77.7c3.1 1.8 7.2.7 9-2.4 1.8-3.2.7-7.2-2.4-9-3.1-1.8-7.2-.7-9 2.4l-21 36.4c-1.8 3.2-.7 7.2 2.4 9 3.1 1.8 7.2.7 9-2.4l6.2-10.8c13.2 4.2 28.1-1.2 35.3-13.8 7.3-12.5 4.5-28-5.7-37.4z" class="st0"/></g></g><g id="g3327"><path id="path3313" d="M107.7 57.5h10.2c5.9 0 10.8 2.9 10.8 9.7 0 6.8-4.9 9.8-10.8 9.8h-4.2v9.5h-6zm10 14.2c2.9 0 4.8-1.3 4.8-4.5s-2-4.5-4.8-4.5h-4.1v9z" class="st0"/><path id="path3315" d="M137.4 57.5h19.2v5.3h-13.2v6.7H155v5.1h-11.6v6.7h13.8v5.2h-19.8z" class="st0"/><path id="path3317" d="M167.2 57.5h6v23.8h13.1v5.2h-19.1z" class="st0"/><path id="path3319" d="M193 72c0-8.6 6.7-14.9 15-14.9 8.4 0 15 6.3 15 14.9 0 8.6-6.6 14.9-15 14.9-8.3 0-15-6.3-15-14.9zm23.9 0c0-5.4-3.6-9.6-8.9-9.6-5.3 0-8.9 4.1-8.9 9.6 0 5.4 3.6 9.6 8.9 9.6 5.3 0 8.9-4.2 8.9-9.6z" class="st0"/><path id="path3321" d="M237.7 62.7h-8.3v-5.3H252v5.3h-8.3v23.8h-6z" class="st0"/><path id="path3323" d="M258.4 72c0-8.6 6.7-14.9 15-14.9 8.4 0 15 6.3 15 14.9 0 8.6-6.7 14.9-15 14.9-8.4 0-15-6.3-15-14.9zm23.8 0c0-5.4-3.6-9.6-8.9-9.6-5.3 0-8.9 4.1-8.9 9.6 0 5.4 3.6 9.6 8.9 9.6 5.4 0 8.9-4.2 8.9-9.6z" class="st0"/><path id="path3325" d="M306.6 73c-1.4-1.4-3.5-4-3.5-4s.4 3.2.4 5.3v12.2H298V57.2h.6L313.2 71c1.4 1.3 3.4 4 3.4 4s-.4-3.3-.4-5.3V57.5h5.6v29.3h-.6z" class="st0"/></g></g><g transform="translate(-29.0103 -29.033)" id="g3333"><path id="path3331" d="M333.4 45c2.1 0 3.8 1.7 3.8 3.8 0 2.1-1.7 3.8-3.8 3.8-2.1 0-3.8-1.7-3.8-3.8 0-2 1.7-3.8 3.8-3.8zm0 7.1c1.8 0 3.2-1.4 3.2-3.2 0-1.8-1.4-3.2-3.2-3.2-1.8 0-3.2 1.4-3.2 3.2 0 1.7 1.5 3.2 3.2 3.2zm-1.3-5c0-.1.1-.2.2-.2h1.5c.7 0 1.3.4 1.3 1.2 0 .8-.6 1.1-.9 1.2.2.4.4.8.6 1.3.1.1 0 .3-.2.3h-.4c-.1 0-.2-.1-.2-.1l-.6-1.3h-.8v1.3c0 .1-.1.2-.2.2h-.3c-.1 0-.2-.1-.2-.2v-3.7zm1.7 1.6c.4 0 .6-.3.6-.6 0-.4-.2-.6-.6-.6h-1v1.2h1z" class="st0"/></g></svg>