<svg width="76" height="71" viewBox="0 0 76 71" fill="none" xmlns="http://www.w3.org/2000/svg">
<path d="M41.7473 10.6553C41.7473 12.8429 39.9803 14.6164 37.8005 14.6164C35.6207 14.6164 33.8536 12.8429 33.8536 10.6553C33.8536 8.46759 35.6207 6.69412 37.8005 6.69412C39.9803 6.69412 41.7473 8.46759 41.7473 10.6553Z" fill="white"/>
<path d="M33.4469 8.39959C32.2999 11.1781 32.7199 12.5138 34.7317 14.6313C28.8554 16.2658 23.3395 17.3868 18.1381 16.0818C12.3568 14.6313 8.95733 9.0284 11.3934 4.80016C14.5973 -0.760881 19.735 -0.99318 25.4178 1.73812C29.218 3.56459 31.1855 5.234 33.4469 8.39959Z" fill="white"/>
<path d="M29.5353 31.8799C32.2376 26.1012 33.2167 21.5978 34.6914 14.6241L29.5144 15.8337C26.2757 22.8327 23.653 28.3567 19.9657 32.2869C17.4692 34.9478 14.8601 37.978 9.98845 36.6039C8.39351 35.8985 7.4582 35.4446 5.31298 33.6229C5.69802 35.7759 5.93113 37.3485 6.22851 39.2477C3.95771 39.4647 2.00747 39.6093 0 39.6093C1.59566 41.7275 5.14599 45.3957 10.0893 45.5505C21.0006 45.8922 25.1718 41.2109 29.5353 31.8799Z" fill="white"/>
<path d="M42.0277 8.37149C43.1757 11.1521 42.7553 12.4888 40.742 14.6079C46.6228 16.2437 52.1428 17.3655 57.3482 16.0595C63.1338 14.6079 66.5358 9.00078 64.0979 4.76934C60.8916 -0.795906 55.75 -1.02838 50.0629 1.70498C46.2598 3.53283 44.2909 5.20351 42.0277 8.37149Z" fill="white"/>
<path d="M40.8505 14.6167C40.8225 14.499 40.7999 14.4894 40.7824 14.6008L40.8505 14.6167C41.2994 16.5065 43.1167 46.258 46.7426 50.0569C47.6738 47.4658 48.0971 46.5312 49.4515 44.4921C51.5679 45.1294 52.9223 45.5117 55.5887 45.8515C50.1711 40.2017 47.0389 23.6346 45.9633 15.8113L40.8505 14.6167Z" fill="white"/>
</svg>
